<svg width="77" height="77" viewBox="0 0 77 77" fill="none" xmlns="http://www.w3.org/2000/svg">
<path d="M39 30.8728C42.6994 30.8728 45.7091 27.8631 45.7091 24.1637C45.7091 20.4642 42.6994 17.4545 39 17.4545C35.3005 17.4545 32.2908 20.4642 32.2908 24.1637C32.2908 27.8631 35.3005 30.8728 39 30.8728ZM39 19.0365C41.827 19.0365 44.1271 21.3366 44.1271 24.1637C44.1271 26.9907 41.827 29.2908 39 29.2908C36.1729 29.2908 33.8728 26.9907 33.8728 24.1637C33.8728 21.3366 36.1729 19.0365 39 19.0365Z" fill="#61DAFB"/>
<path d="M46.0032 32.9224C45.2537 32.7247 44.4291 32.8201 43.7412 33.1839C42.2612 33.9666 40.666 34.3635 39 34.3635C37.334 34.3635 35.7389 33.9666 34.2589 33.1839C33.5709 32.8202 32.7464 32.7248 31.9969 32.9225C28.6855 33.7953 26.3727 36.7992 26.3727 40.2272V50.3727C26.3727 52.6736 28.2446 54.5456 30.5454 54.5456H47.4544C49.7553 54.5456 51.6272 52.6736 51.6272 50.3727V40.2271C51.6274 36.7991 49.3146 33.7952 46.0032 32.9224ZM50.0454 50.3726C50.0454 51.8012 48.8831 52.9634 47.4546 52.9634H30.5456C29.117 52.9634 27.9548 51.8012 27.9548 50.3726V40.2271C27.9548 37.5168 29.7829 35.1421 32.4002 34.4521C32.5266 34.4188 32.6572 34.4024 32.7882 34.4024C33.041 34.4024 33.2947 34.4636 33.5195 34.5823C35.2297 35.4868 37.0736 35.9454 39.0001 35.9454C40.9266 35.9454 42.7706 35.4868 44.4808 34.5823C44.8219 34.402 45.2298 34.3544 45.6 34.4521C48.2173 35.1421 50.0454 37.5168 50.0454 40.2271V50.3726Z" fill="#61DAFB"/>
<path d="M55.0636 34.2548C57.8307 34.2548 60.0819 32.0035 60.0819 29.2365C60.0819 26.4694 57.8307 24.2181 55.0636 24.2181C52.2965 24.2181 50.0453 26.4693 50.0453 29.2365C50.0453 32.0036 52.2964 34.2548 55.0636 34.2548ZM55.0636 25.8002C56.9583 25.8002 58.4999 27.3416 58.4999 29.2365C58.4999 31.1313 56.9583 32.6727 55.0636 32.6727C53.1689 32.6727 51.6273 31.1312 51.6273 29.2365C51.6273 27.3417 53.1687 25.8002 55.0636 25.8002Z" fill="#61DAFB"/>
<path d="M59.913 36.2053C59.2051 36.0659 58.4683 36.1312 57.7827 36.3941C56.6687 36.8212 55.4865 36.9817 54.2981 36.8609C53.863 36.8167 53.4753 37.1332 53.4311 37.5678C53.3869 38.0025 53.7034 38.3906 54.1381 38.4348C55.5729 38.5808 57.004 38.387 58.3491 37.8713C58.7566 37.7151 59.1917 37.6757 59.6075 37.7576C62.3948 38.3063 64.4179 40.7672 64.4179 43.609V47.8363C64.4179 48.7987 63.635 49.5816 62.6726 49.5816H54.2181C53.7813 49.5816 53.4271 49.9358 53.4271 50.3726C53.4271 50.8095 53.7813 51.1636 54.2181 51.1636H62.6726C64.5073 51.1636 65.9999 49.6709 65.9999 47.8363V43.609C65.9999 40.0135 63.4401 36.8998 59.913 36.2053Z" fill="#61DAFB"/>
<path d="M22.9364 34.2548C25.7035 34.2548 27.9547 32.0035 27.9547 29.2365C27.9547 26.4694 25.7035 24.2181 22.9364 24.2181C20.1693 24.2181 17.9181 26.4693 17.9181 29.2365C17.9181 32.0036 20.1694 34.2548 22.9364 34.2548ZM22.9364 25.8002C24.8311 25.8002 26.3727 27.3416 26.3727 29.2365C26.3727 31.1313 24.8311 32.6727 22.9364 32.6727C21.0417 32.6727 19.5001 31.1312 19.5001 29.2365C19.5001 27.3417 21.0418 25.8002 22.9364 25.8002Z" fill="#61DAFB"/>
<path d="M18.3926 37.7575C18.8081 37.6756 19.2434 37.715 19.6509 37.8712C20.996 38.3869 22.4271 38.5807 23.862 38.4347C24.2966 38.3905 24.6131 38.0024 24.5689 37.5677C24.5247 37.1331 24.1359 36.8162 23.702 36.8608C22.5135 36.9816 21.3312 36.8211 20.2174 36.3941C19.5317 36.1312 18.795 36.0659 18.087 36.2053C14.5598 36.8998 12 40.0135 12 43.609V47.8363C12 49.671 13.4926 51.1636 15.3273 51.1636H23.7818C24.2187 51.1636 24.5728 50.8095 24.5728 50.3726C24.5728 49.9358 24.2187 49.5816 23.7818 49.5816H15.3273C14.3649 49.5816 13.582 48.7986 13.582 47.8363V43.609C13.582 40.7672 15.6051 38.3063 18.3926 37.7575Z" fill="#61DAFB"/>
<circle cx="38.5" cy="38.5" r="38.5" fill="#61DAFB" fill-opacity="0.22"/>
</svg>
