<svg width="37" height="37" viewBox="0 0 37 37" fill="none" xmlns="http://www.w3.org/2000/svg">
<g clip-path="url(#clip0)">
<path d="M36.9791 17.0911C36.896 16.4563 36.5719 15.8917 36.0642 15.5013L29.2595 10.2614V5.00002C29.2595 3.67857 28.1843 2.60341 26.8634 2.60341C25.5432 2.60341 24.4674 3.67857 24.4674 5.00002V6.57124L19.9611 3.10062C19.5441 2.78057 19.0248 2.60341 18.4991 2.60341C17.9728 2.60341 17.453 2.77999 17.0359 3.1012L0.932832 15.5013C-0.113872 16.3081 -0.309621 17.8149 0.496609 18.8616C0.954324 19.4552 1.64612 19.7956 2.39659 19.7956C2.78228 19.7956 3.15287 19.7067 3.4886 19.5336V31.9994C3.4886 33.3209 4.56377 34.3966 5.88522 34.3966H16.6508V23.0786H20.3398V34.3949H30.9527C32.2735 34.3949 33.3487 33.3203 33.3487 31.9977V19.4424C33.7257 19.6742 34.1544 19.7956 34.6016 19.7956C35.3503 19.7956 36.0433 19.4552 36.501 18.8628C36.8925 18.3557 37.0627 17.7266 36.9791 17.0911ZM34.7463 17.5094C34.6998 17.5703 34.6365 17.5802 34.6028 17.5802C34.5627 17.5802 34.5261 17.568 34.4936 17.5425L31.1339 14.9559V31.9994C31.1339 32.0999 31.0526 32.1806 30.9533 32.1806H22.5558L22.5564 20.8632H14.4354V32.1806H5.88522C5.78589 32.1806 5.70515 32.0987 5.70515 31.9994V15.0791L2.50637 17.5419C2.47385 17.5669 2.43725 17.5796 2.39717 17.5796C2.3629 17.5796 2.30017 17.5698 2.25312 17.5094C2.21536 17.4606 2.21246 17.41 2.21711 17.3763C2.22117 17.3427 2.23686 17.2944 2.28565 17.2573L18.3905 4.85771C18.4706 4.79672 18.5293 4.79614 18.6106 4.85771L26.684 11.0746V5.00002C26.684 4.90012 26.7653 4.81938 26.8646 4.81938C26.9639 4.81938 27.0458 4.90012 27.0458 5.00002V11.3517L34.716 17.2567C34.7648 17.2939 34.7788 17.3421 34.7834 17.3758C34.7881 17.4112 34.7846 17.4617 34.7463 17.5094Z" fill="#9C9C9C"/>
</g>
<defs>
<clipPath id="clip0">
<rect width="37" height="37" fill="white"/>
</clipPath>
</defs>
</svg>
