<svg width="233" height="71" viewBox="0 0 233 71" fill="none" xmlns="http://www.w3.org/2000/svg">
<path d="M121.379 27.648C121.379 30.192 120.955 32.552 120.107 34.728C119.275 36.888 118.091 38.76 116.555 40.344C115.019 41.928 113.171 43.168 111.011 44.064C108.851 44.944 106.451 45.384 103.811 45.384C101.187 45.384 98.7951 44.944 96.6351 44.064C94.4751 43.168 92.6191 41.928 91.0671 40.344C89.5311 38.76 88.3391 36.888 87.4911 34.728C86.6431 32.552 86.2191 30.192 86.2191 27.648C86.2191 25.104 86.6431 22.752 87.4911 20.592C88.3391 18.416 89.5311 16.536 91.0671 14.952C92.6191 13.368 94.4751 12.136 96.6351 11.256C98.7951 10.36 101.187 9.912 103.811 9.912C105.571 9.912 107.227 10.12 108.779 10.536C110.331 10.936 111.755 11.512 113.051 12.264C114.347 13 115.507 13.904 116.531 14.976C117.571 16.032 118.451 17.216 119.171 18.528C119.891 19.84 120.435 21.264 120.803 22.8C121.187 24.336 121.379 25.952 121.379 27.648ZM114.779 27.648C114.779 25.744 114.523 24.04 114.011 22.536C113.499 21.016 112.771 19.728 111.827 18.672C110.883 17.616 109.731 16.808 108.371 16.248C107.027 15.688 105.507 15.408 103.811 15.408C102.115 15.408 100.587 15.688 99.2271 16.248C97.8831 16.808 96.7311 17.616 95.7711 18.672C94.8271 19.728 94.0991 21.016 93.5871 22.536C93.0751 24.04 92.8191 25.744 92.8191 27.648C92.8191 29.552 93.0751 31.264 93.5871 32.784C94.0991 34.288 94.8271 35.568 95.7711 36.624C96.7311 37.664 97.8831 38.464 99.2271 39.024C100.587 39.584 102.115 39.864 103.811 39.864C105.507 39.864 107.027 39.584 108.371 39.024C109.731 38.464 110.883 37.664 111.827 36.624C112.771 35.568 113.499 34.288 114.011 32.784C114.523 31.264 114.779 29.552 114.779 27.648ZM160.197 15.6H149.733V45H143.277V15.6H132.813V10.296H160.197V15.6ZM181.298 15.432V25.056H193.442V30.024H181.298V39.84H196.706V45H174.818V10.296H196.706V15.432H181.298ZM232.835 39.672V45H212.507V10.296H218.963V39.672H232.835ZM91.8874 61.924V67H89.7904V61.924L85.0564 54.04H86.9014C87.0874 54.04 87.2344 54.085 87.3424 54.175C87.4504 54.265 87.5404 54.379 87.6124 54.517L90.2674 59.161C90.3874 59.395 90.4954 59.617 90.5914 59.827C90.6934 60.037 90.7834 60.244 90.8614 60.448C90.9274 60.238 91.0084 60.031 91.1044 59.827C91.2004 59.617 91.3084 59.395 91.4284 59.161L94.0654 54.517C94.1254 54.397 94.2124 54.289 94.3264 54.193C94.4404 54.091 94.5874 54.04 94.7674 54.04H96.6214L91.8874 61.924ZM109.567 60.52C109.567 61.48 109.411 62.365 109.099 63.175C108.787 63.985 108.346 64.684 107.776 65.272C107.212 65.854 106.531 66.31 105.733 66.64C104.941 66.97 104.059 67.135 103.087 67.135C102.121 67.135 101.239 66.97 100.441 66.64C99.6486 66.31 98.9676 65.854 98.3976 65.272C97.8276 64.684 97.3866 63.985 97.0746 63.175C96.7626 62.365 96.6066 61.48 96.6066 60.52C96.6066 59.56 96.7626 58.675 97.0746 57.865C97.3866 57.055 97.8276 56.356 98.3976 55.768C98.9676 55.18 99.6486 54.721 100.441 54.391C101.239 54.061 102.121 53.896 103.087 53.896C104.059 53.896 104.941 54.061 105.733 54.391C106.531 54.721 107.212 55.18 107.776 55.768C108.346 56.356 108.787 57.055 109.099 57.865C109.411 58.675 109.567 59.56 109.567 60.52ZM107.416 60.52C107.416 59.776 107.314 59.107 107.11 58.513C106.912 57.919 106.624 57.415 106.246 57.001C105.874 56.587 105.421 56.269 104.887 56.047C104.353 55.825 103.753 55.714 103.087 55.714C102.427 55.714 101.83 55.825 101.296 56.047C100.762 56.269 100.306 56.587 99.9276 57.001C99.5496 57.415 99.2586 57.919 99.0546 58.513C98.8506 59.107 98.7486 59.776 98.7486 60.52C98.7486 61.27 98.8506 61.942 99.0546 62.536C99.2586 63.13 99.5496 63.634 99.9276 64.048C100.306 64.456 100.762 64.771 101.296 64.993C101.83 65.209 102.427 65.317 103.087 65.317C103.753 65.317 104.353 65.209 104.887 64.993C105.421 64.771 105.874 64.456 106.246 64.048C106.624 63.634 106.912 63.13 107.11 62.536C107.314 61.942 107.416 61.27 107.416 60.52ZM102.277 51.997C102.277 52.147 102.247 52.288 102.187 52.42C102.127 52.552 102.046 52.669 101.944 52.771C101.842 52.867 101.722 52.945 101.584 53.005C101.446 53.059 101.302 53.086 101.152 53.086C101.008 53.086 100.87 53.059 100.738 53.005C100.606 52.945 100.489 52.867 100.387 52.771C100.291 52.669 100.213 52.552 100.153 52.42C100.099 52.288 100.072 52.147 100.072 51.997C100.072 51.847 100.099 51.706 100.153 51.574C100.213 51.436 100.291 51.316 100.387 51.214C100.489 51.112 100.606 51.031 100.738 50.971C100.87 50.911 101.008 50.881 101.152 50.881C101.302 50.881 101.446 50.911 101.584 50.971C101.722 51.031 101.842 51.112 101.944 51.214C102.046 51.316 102.127 51.436 102.187 51.574C102.247 51.706 102.277 51.847 102.277 51.997ZM106.138 51.997C106.138 52.147 106.108 52.288 106.048 52.42C105.988 52.552 105.907 52.669 105.805 52.771C105.709 52.867 105.595 52.945 105.463 53.005C105.331 53.059 105.19 53.086 105.04 53.086C104.884 53.086 104.74 53.059 104.608 53.005C104.476 52.945 104.359 52.867 104.257 52.771C104.155 52.669 104.074 52.552 104.014 52.42C103.96 52.288 103.933 52.147 103.933 51.997C103.933 51.847 103.96 51.706 104.014 51.574C104.074 51.436 104.155 51.316 104.257 51.214C104.359 51.112 104.476 51.031 104.608 50.971C104.74 50.911 104.884 50.881 105.04 50.881C105.19 50.881 105.331 50.911 105.463 50.971C105.595 51.031 105.709 51.112 105.805 51.214C105.907 51.316 105.988 51.436 106.048 51.574C106.108 51.706 106.138 51.847 106.138 51.997ZM122.602 54.04V67H121.531C121.369 67 121.231 66.973 121.117 66.919C121.003 66.859 120.895 66.763 120.793 66.631L113.674 57.487C113.692 57.661 113.704 57.835 113.71 58.009C113.722 58.177 113.728 58.333 113.728 58.477V67H111.874V54.04H112.972C113.062 54.04 113.137 54.046 113.197 54.058C113.263 54.064 113.323 54.079 113.377 54.103C113.431 54.127 113.482 54.163 113.53 54.211C113.578 54.259 113.629 54.319 113.683 54.391L120.811 63.544C120.793 63.358 120.778 63.175 120.766 62.995C120.76 62.815 120.757 62.647 120.757 62.491V54.04H122.602ZM133.781 65.299L133.772 67H125.69V54.04H133.772V55.741H127.805V59.647H132.575V61.294H127.805V65.299H133.781ZM144.98 55.795H140.939V67H138.842V55.795H134.792V54.04H144.98V55.795ZM148.899 67H146.784V54.04H148.899V67ZM149.097 51.781C149.097 51.943 149.064 52.099 148.998 52.249C148.932 52.393 148.839 52.522 148.719 52.636C148.605 52.75 148.47 52.84 148.314 52.906C148.164 52.972 148.005 53.005 147.837 53.005C147.675 53.005 147.522 52.972 147.378 52.906C147.234 52.84 147.105 52.75 146.991 52.636C146.883 52.522 146.796 52.393 146.73 52.249C146.664 52.099 146.631 51.943 146.631 51.781C146.631 51.613 146.664 51.454 146.73 51.304C146.796 51.148 146.883 51.013 146.991 50.899C147.105 50.785 147.234 50.695 147.378 50.629C147.522 50.563 147.675 50.53 147.837 50.53C148.005 50.53 148.164 50.563 148.314 50.629C148.47 50.695 148.605 50.785 148.719 50.899C148.839 51.013 148.932 51.148 148.998 51.304C149.064 51.454 149.097 51.613 149.097 51.781ZM165.758 54.04V67H163.904V58.117C163.904 57.973 163.907 57.817 163.913 57.649C163.925 57.475 163.94 57.301 163.958 57.127L159.791 64.822C159.629 65.14 159.38 65.299 159.044 65.299H158.747C158.405 65.299 158.156 65.14 158 64.822L153.77 57.109C153.788 57.283 153.8 57.457 153.806 57.631C153.818 57.805 153.824 57.967 153.824 58.117V67H151.97V54.04H153.545C153.731 54.04 153.875 54.058 153.977 54.094C154.079 54.124 154.172 54.223 154.256 54.391L158.414 61.924C158.504 62.098 158.588 62.278 158.666 62.464C158.75 62.644 158.825 62.83 158.891 63.022C158.963 62.83 159.038 62.641 159.116 62.455C159.2 62.263 159.287 62.08 159.377 61.906L163.472 54.391C163.556 54.223 163.649 54.124 163.751 54.094C163.853 54.058 163.997 54.04 164.183 54.04H165.758ZM177.342 60.646C177.81 60.646 178.221 60.586 178.575 60.466C178.935 60.346 179.232 60.178 179.466 59.962C179.706 59.74 179.886 59.473 180.006 59.161C180.126 58.849 180.186 58.501 180.186 58.117C180.186 57.739 180.126 57.4 180.006 57.1C179.892 56.8 179.718 56.545 179.484 56.335C179.25 56.125 178.953 55.966 178.593 55.858C178.239 55.744 177.822 55.687 177.342 55.687H175.416V60.646H177.342ZM177.342 54.04C178.188 54.04 178.92 54.139 179.538 54.337C180.162 54.535 180.675 54.814 181.077 55.174C181.485 55.528 181.788 55.957 181.986 56.461C182.184 56.959 182.283 57.511 182.283 58.117C182.283 58.735 182.178 59.302 181.968 59.818C181.758 60.328 181.446 60.769 181.032 61.141C180.618 61.507 180.102 61.795 179.484 62.005C178.872 62.209 178.158 62.311 177.342 62.311H175.416V67H173.31V54.04H177.342ZM190.257 62.14L188.475 57.406C188.331 57.04 188.184 56.575 188.034 56.011C187.968 56.293 187.896 56.554 187.818 56.794C187.74 57.028 187.668 57.235 187.602 57.415L185.82 62.14H190.257ZM194.244 67H192.615C192.429 67 192.279 66.955 192.165 66.865C192.051 66.769 191.964 66.652 191.904 66.514L190.824 63.652H185.244L184.164 66.514C184.116 66.634 184.032 66.745 183.912 66.847C183.792 66.949 183.642 67 183.462 67H181.833L186.972 54.04H189.105L194.244 67ZM206.485 54.04V67H205.414C205.252 67 205.114 66.973 205 66.919C204.886 66.859 204.778 66.763 204.676 66.631L197.557 57.487C197.575 57.661 197.587 57.835 197.593 58.009C197.605 58.177 197.611 58.333 197.611 58.477V67H195.757V54.04H196.855C196.945 54.04 197.02 54.046 197.08 54.058C197.146 54.064 197.206 54.079 197.26 54.103C197.314 54.127 197.365 54.163 197.413 54.211C197.461 54.259 197.512 54.319 197.566 54.391L204.694 63.544C204.676 63.358 204.661 63.175 204.649 62.995C204.643 62.815 204.64 62.647 204.64 62.491V54.04H206.485ZM217.664 65.299L217.655 67H209.573V54.04H217.655V55.741H211.688V59.647H216.458V61.294H211.688V65.299H217.664ZM227.432 65.236V67H219.944V54.04H222.05V65.236H227.432ZM231.358 67H229.243V54.04H231.358V67ZM231.556 51.781C231.556 51.943 231.523 52.099 231.457 52.249C231.391 52.393 231.298 52.522 231.178 52.636C231.064 52.75 230.929 52.84 230.773 52.906C230.623 52.972 230.464 53.005 230.296 53.005C230.134 53.005 229.981 52.972 229.837 52.906C229.693 52.84 229.564 52.75 229.45 52.636C229.342 52.522 229.255 52.393 229.189 52.249C229.123 52.099 229.09 51.943 229.09 51.781C229.09 51.613 229.123 51.454 229.189 51.304C229.255 51.148 229.342 51.013 229.45 50.899C229.564 50.785 229.693 50.695 229.837 50.629C229.981 50.563 230.134 50.53 230.296 50.53C230.464 50.53 230.623 50.563 230.773 50.629C230.929 50.695 231.064 50.785 231.178 50.899C231.298 51.013 231.391 51.148 231.457 51.304C231.523 51.454 231.556 51.613 231.556 51.781Z" fill="#61DAFB"/>
<path d="M20.1138 31.9506H11.8316C11.1782 31.9506 10.6484 32.4803 10.6484 33.1337V44.9653C10.6484 45.6188 11.1782 46.1485 11.8316 46.1485H20.1138C20.7672 46.1485 21.2969 45.6188 21.2969 44.9653V33.1337C21.2969 32.4803 20.7672 31.9506 20.1138 31.9506ZM18.9306 43.7822H13.0147V34.3169H18.9306V43.7822Z" fill="#61DAFB"/>
<path d="M40.2274 31.9506H31.9452C31.2918 31.9506 30.7621 32.4803 30.7621 33.1337V44.9653C30.7621 45.6188 31.2918 46.1485 31.9452 46.1485H40.2274C40.8808 46.1485 41.4106 45.6188 41.4106 44.9653V33.1337C41.4106 32.4803 40.8808 31.9506 40.2274 31.9506ZM39.0443 43.7822H33.1285V34.3169H39.0443V43.7822Z" fill="#61DAFB"/>
<path d="M40.2274 50.8811H31.9452C31.2918 50.8811 30.7621 51.4108 30.7621 52.0643V63.8959C30.7621 64.5493 31.2918 65.079 31.9452 65.079H40.2274C40.8808 65.079 41.4106 64.5493 41.4106 63.8959V52.0643C41.4106 51.411 40.8808 50.8811 40.2274 50.8811ZM39.0443 62.7127H33.1285V53.2474H39.0443V62.7127Z" fill="#61DAFB"/>
<path d="M59.1581 31.9506H50.8759C50.2225 31.9506 49.6927 32.4803 49.6927 33.1337V44.9653C49.6927 45.6188 50.2225 46.1485 50.8759 46.1485H59.1581C59.8115 46.1485 60.3412 45.6188 60.3412 44.9653V33.1337C60.3412 32.4803 59.8115 31.9506 59.1581 31.9506ZM57.9749 43.7822H52.0592V34.3169H57.9749V43.7822Z" fill="#61DAFB"/>
<path d="M20.1138 50.8811H11.8316C11.1782 50.8811 10.6484 51.4108 10.6484 52.0643V63.8959C10.6484 64.5493 11.1782 65.079 11.8316 65.079H20.1138C20.7672 65.079 21.2969 64.5493 21.2969 63.8959V52.0643C21.2969 51.411 20.7672 50.8811 20.1138 50.8811ZM18.9306 62.7127H13.0147V53.2474H18.9306V62.7127Z" fill="#61DAFB"/>
<path d="M59.1581 50.8811H50.8759C50.2225 50.8811 49.6927 51.4108 49.6927 52.0643V63.8959C49.6927 64.5493 50.2225 65.079 50.8759 65.079H59.1581C59.8115 65.079 60.3412 64.5493 60.3412 63.8959V52.0643C60.3412 51.411 59.8115 50.8811 59.1581 50.8811ZM57.9749 62.7127H52.0592V53.2474H57.9749V62.7127Z" fill="#61DAFB"/>
<path d="M66.2571 68.6295V28.4019H67.4403C68.0937 28.4019 68.6234 27.8722 68.6234 27.2188V21.3031C68.6234 20.6496 68.0937 20.1199 67.4403 20.1199H66.2571V15.3873C66.2571 14.7339 65.7274 14.2042 65.074 14.2042H62.7077V1.18925C62.7077 0.53583 62.178 0.00610352 61.5246 0.00610352H9.46533C8.8119 0.00610352 8.28218 0.53583 8.28218 1.18925V14.204H5.91588C5.26246 14.204 4.73273 14.7337 4.73273 15.3872V20.1198H3.54958C2.89616 20.1198 2.36644 20.6495 2.36644 21.3029V27.2187C2.36644 27.8721 2.89616 28.4018 3.54958 28.4018H4.73273V68.6293H0V70.9956H5.91588H65.074H71V68.6293H66.2571V68.6295ZM10.6485 2.3724H60.3413V14.204H10.6485V2.3724ZM7.09903 16.5703H9.46533H61.5244H63.8907V20.1198H7.09903V16.5703ZM63.8907 68.6295H7.09903V28.4019H63.8909V68.6295H63.8907ZM5.91588 26.0356H4.73273V22.4862H5.91588H65.074H66.2571V26.0356H65.074H5.91588Z" fill="#61DAFB"/>
<path d="M33.6775 6.41943C33.4893 5.93852 33.225 5.52319 32.8842 5.1736C32.5435 4.82401 32.1334 4.54972 31.6543 4.351C31.175 4.15228 30.6445 4.05286 30.0623 4.05286C29.4802 4.05286 28.9487 4.15131 28.4677 4.34837C27.9868 4.54542 27.5751 4.81957 27.2326 5.17097C26.8901 5.52236 26.6248 5.93852 26.4366 6.41957C26.2484 6.90048 26.1544 7.42314 26.1544 7.98753C26.1544 8.55193 26.2484 9.07458 26.4366 9.5555C26.6248 10.0364 26.8901 10.4526 27.2326 10.8041C27.5751 11.1555 27.9868 11.4296 28.4677 11.6267C28.9487 11.8238 29.4802 11.9222 30.0623 11.9222C30.6445 11.9222 31.175 11.8238 31.6543 11.6267C32.1335 11.4298 32.5435 11.1555 32.8842 10.8041C33.2249 10.4527 33.4893 10.0365 33.6775 9.5555C33.8657 9.07458 33.9597 8.55193 33.9597 7.98753C33.9597 7.423 33.8656 6.90034 33.6775 6.41943ZM32.3224 9.12409C32.2106 9.45953 32.0499 9.74354 31.8405 9.97595C31.6311 10.2085 31.3764 10.3868 31.0764 10.5111C30.7765 10.6353 30.4384 10.6975 30.0622 10.6975C29.686 10.6975 29.3469 10.6353 29.0453 10.5111C28.7436 10.3868 28.4872 10.2085 28.276 9.97595C28.0648 9.7434 27.9024 9.45953 27.7888 9.12409C27.6752 8.78864 27.6184 8.40979 27.6184 7.98739C27.6184 7.565 27.6752 7.18615 27.7888 6.8507C27.9024 6.51525 28.0648 6.23042 28.276 5.9962C28.4872 5.76199 28.7436 5.58268 29.0453 5.45843C29.3471 5.33418 29.686 5.27206 30.0622 5.27206C30.4384 5.27206 30.7765 5.33418 31.0764 5.45843C31.3764 5.58268 31.631 5.76199 31.8405 5.9962C32.0499 6.23042 32.2105 6.51525 32.3224 6.8507C32.4342 7.18615 32.4901 7.565 32.4901 7.98739C32.4901 8.40979 32.4343 8.78864 32.3224 9.12409Z" fill="#61DAFB"/>
<path d="M23.5774 4.13794V7.44956H19.9677V4.13794H18.5248V11.8367H19.9677V8.47185H23.5774V11.8367H25.0203V4.13794H23.5774Z" fill="#61DAFB"/>
<path d="M48.5376 10.6547V4.13794H47.1052V11.8367H51.6202V10.6547H48.5376Z" fill="#61DAFB"/>
<path d="M34.0236 4.13794V5.31457H36.3503V11.8367H37.7825V5.31457H40.0985V4.13794H34.0236Z" fill="#61DAFB"/>
<path d="M45.8648 5.27727V4.13794H41.009V11.8367H45.8648V10.692H42.4519V8.51442H45.1406V7.41226H42.4519V5.27727H45.8648Z" fill="#61DAFB"/>
</svg>
